<?xml version="1.0" standalone="no"?>
<!DOCTYPE svg PUBLIC "-//W3C//DTD SVG 20010904//EN"
 "http://www.w3.org/TR/2001/REC-SVG-20010904/DTD/svg10.dtd">
<svg version="1.0" xmlns="http://www.w3.org/2000/svg"
 width="100.000000pt" height="133.000000pt" viewBox="0 0 74.000000 107.000000"
 preserveAspectRatio="xMidYMid meet">

<g transform="translate(0.000000,107.000000) scale(0.100000,-0.100000)"
fill="#fff" stroke="none">
<path d="M324 948 l-52 -53 -3 -340 -4 -340 63 -3 62 -3 -1 313 c-1 172 -4
350 -7 396 l-7 83 -51 -53z"/>
<path d="M438 525 c-5 -311 -4 -321 35 -309 10 3 35 3 55 -1 35 -7 36 -7 17
-22 -66 -51 -242 -107 -376 -120 -59 -6 -68 -8 -44 -14 89 -20 289 0 397 41
66 25 123 71 148 121 26 49 25 83 -1 125 -25 42 -43 44 -34 6 3 -16 1 -42 -5
-58 -12 -31 -48 -74 -62 -74 -4 0 -8 107 -8 238 l0 237 -59 65 -58 65 -5 -300z"/>
<path d="M147 643 l-57 -63 2 -182 3 -183 63 -3 62 -3 0 245 c0 135 -3 247 -7
249 -5 2 -34 -25 -66 -60z"/>
</g>
</svg>
